# xmcd CD database file
#
# Track frame offsets:
#	150
#	29732
#	46867
#	79145
#	118342
#	134215
#	166432
#	194105
#
# Disc length: 3100 seconds
#
# Revision: 0
# Processed by: cddbd v1.5.1PL2 Copyright (c) Steve Scherf et al.
# Submitted via: CDex 1.51
#
DISCID=7d0c1a08
DTITLE=山下洋輔 - Mystic Layers
DYEAR=2005
DGENRE=Jazz
TTITLE0=Gathering
TTITLE1=Groovin' Parade
TTITLE2=Blue Clef
TTITLE3=Yawaragi
TTITLE4=Increasing Tails
TTITLE5=Only Look at You
TTITLE6=Mystic Beat
TTITLE7=Fables of Faubus
EXTD=YEAR: 2005
EXTT0=
EXTT1=
EXTT2=
EXTT3=
EXTT4=
EXTT5=
EXTT6=
EXTT7=
PLAYORDER=
